<svg width="170" height="17" viewBox="0 0 170 17" fill="none" xmlns="http://www.w3.org/2000/svg">
<path fill-rule="evenodd" clip-rule="evenodd" d="M51.4267 0.518494H49.1808V4.58595L49.1782 4.58472V6.53112L49.1808 6.53234V13.744H39.898C38.8999 13.744 38.0515 12.8955 38.0515 11.8724V4.33641C38.0515 3.33826 38.8999 2.51479 39.898 2.51479C40.447 2.51479 40.9711 2.71442 41.5949 2.98891L47.322 5.66406V3.71315L42.2187 1.31701C41.0709 0.768031 40.2724 0.518494 39.2742 0.518494C37.3528 0.518494 35.8056 2.04067 35.8056 3.96211V12.2717C35.8056 14.1682 37.3528 15.7153 39.2492 15.7153H51.4267V0.518494ZM58.2948 7.38077V9.35211H66.6543C68.5508 9.35211 70.0979 7.82993 70.0979 5.93345V3.96211C70.0979 2.04067 68.5508 0.518494 66.6543 0.518494H57.7208C55.8244 0.518494 54.2772 2.04067 54.2772 3.96211V12.2717C54.2772 14.1682 55.8244 15.7153 57.7208 15.7153H69.8983V13.744H58.3696C57.3715 13.744 56.5231 12.8955 56.5231 11.8974V4.33641C56.5231 3.31331 57.3715 2.48984 58.3696 2.48984H66.0055C67.0286 2.48984 67.8521 3.31331 67.8521 4.33641V5.53419C67.8521 6.53234 67.0286 7.38077 66.0055 7.38077H58.2948Z" fill="#181818"/>
<path d="M18.744 1.84985H30.3569C30.8077 1.84985 31.5181 2.01402 32.0395 2.53148M32.7047 15.8863V4.32391C32.7047 3.48471 32.4233 2.91238 32.0395 2.53148M25.6612 15.3057H22.3793C21.521 15.3057 20.6021 14.1444 22.3793 12.2257C24.1566 10.3071 29.56 4.96346 32.0395 2.53148" stroke="#5E44E5" stroke-width="2"/>
<path d="M13.5052 0.268951C15.506 0.268951 17.1066 1.84456 17.1066 3.84533V15.7499H14.8557V3.84533C14.8557 3.09504 14.2555 2.49481 13.5052 2.49481C12.7299 2.49481 12.1547 3.09504 12.1547 3.84533V12.4236C12.1547 14.4244 10.5541 16 8.5533 16C6.55253 16 4.95191 14.4244 4.95191 12.4236V3.84533C4.95191 3.09504 4.35168 2.49481 3.60139 2.49481C2.8511 2.49481 2.25087 3.09504 2.25087 3.84533V15.7499H0V3.84533C0 1.84456 1.60062 0.268951 3.60139 0.268951C5.60216 0.268951 7.20277 1.84456 7.20277 3.84533V12.4236C7.20277 13.1739 7.80301 13.7742 8.5533 13.7742C9.30359 13.7742 9.90382 13.1739 9.90382 12.4236V3.84533C9.90382 1.84456 11.4794 0.268951 13.5052 0.268951Z" fill="#181818"/>
<path d="M73.0562 0.268951H85.7577C87.5543 0.268951 89.0266 1.66636 89.0266 3.46303C89.0266 5.23474 87.5543 6.68206 85.7577 6.68206H80.3427C79.6939 6.68206 79.1449 7.20609 79.1449 7.85488C79.1449 8.52863 79.6939 9.05266 80.3427 9.05266H85.7577C87.5793 9.05266 89.0266 10.475 89.0266 12.2717C89.0266 14.0434 87.5793 15.4658 85.7577 15.4658H73.0562V0.268951ZM75.3021 2.2403V13.4944H85.3584C86.0322 13.4944 86.6061 12.9454 86.6061 12.2717C86.6061 11.5979 86.0322 11.024 85.3584 11.024H79.9435C78.1718 11.024 76.7244 9.6266 76.7244 7.85488C76.7244 6.08317 78.1718 4.68576 79.9435 4.68576H85.3584C86.0322 4.68576 86.6061 4.11183 86.6061 3.46303C86.6061 2.78928 86.0322 2.2403 85.3584 2.2403H75.3021Z" fill="#181818"/>
<path d="M104.853 6.68206V0.268951H107.099L107.124 12.0222C107.124 13.9186 105.577 15.4658 103.655 15.4658H92.4238V13.4944H103.031C104.03 13.4944 104.878 12.646 104.878 11.6478L104.853 8.62845H95.3683C93.4469 8.62845 91.8998 7.10627 91.8998 5.20979V0.268951H94.1456V4.83548C94.1456 5.83363 94.994 6.68206 95.9922 6.68206H104.853Z" fill="#181818"/>
<path d="M110.17 0.199631H112.416V12.2024C112.416 12.951 113.014 13.5499 113.763 13.5499C114.512 13.5499 115.111 12.951 115.111 12.2024V3.56838C115.111 1.57209 116.708 0 118.704 0C120.7 0 122.297 1.57209 122.297 3.56838V12.2024C122.297 12.951 122.871 13.5499 123.645 13.5499C124.393 13.5499 124.992 12.951 124.992 12.2024V0.199631H127.238V12.0526C127.238 14.0739 125.641 15.646 123.645 15.646C121.623 15.646 120.051 14.0739 120.051 12.0526V3.41866C120.051 2.69501 119.453 2.09611 118.704 2.09611C117.955 2.09611 117.356 2.69501 117.356 3.41866V12.0526C117.356 14.0739 115.759 15.646 113.763 15.646C111.767 15.646 110.17 14.0739 110.17 12.0526V0.199631Z" fill="#5E44E5"/>
<path d="M134.564 0.199631L130.336 15.3965H128.09L132.319 0.199631H134.564Z" fill="#5E44E5"/>
<path d="M136.066 0.199631H138.312V11.5785C138.312 12.5767 139.16 13.4251 140.158 13.4251H151.762V15.3965H139.51C137.613 15.3965 136.066 13.8493 136.066 11.9528V0.199631Z" fill="#5E44E5"/>
<path d="M153.583 0.199631H155.829V11.5785C155.829 12.5767 156.678 13.4251 157.676 13.4251H169.279V15.3965H157.027C155.13 15.3965 153.583 13.8493 153.583 11.9528V0.199631Z" fill="#5E44E5"/>
</svg>
