<svg width="261" height="215" viewBox="0 0 261 215" fill="none" xmlns="http://www.w3.org/2000/svg">
<path fill-rule="evenodd" clip-rule="evenodd" d="M191.574 0.927856H183.224V16.052L183.214 16.0473V23.2847L183.224 23.2893V50.1044H148.707C144.996 50.1044 141.841 46.9497 141.841 43.1455V15.1241C141.841 11.4127 144.996 8.35073 148.707 8.35073C150.748 8.35073 152.697 9.09302 155.017 10.1137L176.312 20.0607V12.8066L157.336 3.89701C153.068 1.85572 150.099 0.927856 146.387 0.927856C139.243 0.927856 133.49 6.5878 133.49 13.7323V44.6301C133.49 51.6818 139.243 57.4345 146.295 57.4345H191.574V0.927856ZM217.112 26.444V33.7741H248.195C255.247 33.7741 261 28.1142 261 21.0624V13.7323C261 6.5878 255.247 0.927856 248.195 0.927856H214.978C207.926 0.927856 202.174 6.5878 202.174 13.7323V44.6301C202.174 51.6818 207.926 57.4345 214.978 57.4345H260.258V50.1044H217.391C213.679 50.1044 210.524 46.9497 210.524 43.2383V15.1241C210.524 11.3199 213.679 8.25795 217.391 8.25795H245.783C249.587 8.25795 252.649 11.3199 252.649 15.1241V19.5778C252.649 23.2893 249.587 26.444 245.783 26.444H217.112Z" fill="#181818"/>
<path d="M70.0495 5.87836H113.23C114.906 5.87836 117.548 6.48879 119.487 8.41287M121.96 60V15.0777C121.96 11.9573 120.914 9.82918 119.487 8.41287M101 55.9114H83.5669C80.3753 55.9114 76.9584 51.5934 83.5669 44.4592C90.1754 37.325 110.267 17.4557 119.487 8.41287" stroke="#5E44E5" stroke-width="8.12015"/>
<path d="M50.57 0C58.0096 0 63.9612 5.85861 63.9612 13.2981V57.5632H55.5917V13.2981C55.5917 10.5083 53.3599 8.27646 50.57 8.27646C47.6872 8.27646 45.5484 10.5083 45.5484 13.2981V45.195C45.5484 52.6346 39.5968 58.4932 32.1573 58.4932C24.7177 58.4932 18.7661 52.6346 18.7661 45.195V13.2981C18.7661 10.5083 16.5343 8.27646 13.7445 8.27646C10.9546 8.27646 8.72278 10.5083 8.72278 13.2981V57.5632H0.353333V13.2981C0.353333 5.85861 6.30494 0 13.7445 0C21.184 0 27.1356 5.85861 27.1356 13.2981V45.195C27.1356 47.9849 29.3674 50.2167 32.1573 50.2167C34.9471 50.2167 37.1789 47.9849 37.1789 45.195V13.2981C37.1789 5.85861 43.0375 0 50.57 0Z" fill="#181818"/>
<path d="M6.10352e-05 79.9721H47.2281C53.9087 79.9721 59.3831 85.1681 59.3831 91.8487C59.3831 98.4365 53.9087 103.818 47.2281 103.818H27.0936C24.6811 103.818 22.6398 105.767 22.6398 108.179C22.6398 110.684 24.6811 112.633 27.0936 112.633H47.2281C54.0015 112.633 59.3831 117.922 59.3831 124.602C59.3831 131.19 54.0015 136.479 47.2281 136.479H6.10352e-05V79.9721ZM8.3508 87.3022V129.149H45.7435C48.2488 129.149 50.3829 127.107 50.3829 124.602C50.3829 122.097 48.2488 119.963 45.7435 119.963H25.609C19.0212 119.963 13.6396 114.767 13.6396 108.179C13.6396 101.591 19.0212 96.3952 25.609 96.3952H45.7435C48.2488 96.3952 50.3829 94.2611 50.3829 91.8487C50.3829 89.3435 48.2488 87.3022 45.7435 87.3022H8.3508Z" fill="#181818"/>
<path d="M118.231 103.818V79.9721H126.582L126.675 123.674C126.675 130.726 120.922 136.479 113.777 136.479H72.0149V129.149H111.458C115.169 129.149 118.324 125.994 118.324 122.282L118.231 111.055H82.9636C75.8191 111.055 70.0664 105.395 70.0664 98.3437V79.9721H78.4171V96.9519C78.4171 100.663 81.5718 103.818 85.2833 103.818H118.231Z" fill="#181818"/>
<path d="M0.342468 157.114H8.6932V201.744C8.6932 204.527 10.92 206.754 13.7036 206.754C16.4872 206.754 18.7141 204.527 18.7141 201.744V169.64C18.7141 162.217 24.6524 156.371 32.0753 156.371C39.4981 156.371 45.4365 162.217 45.4365 169.64V201.744C45.4365 204.527 47.5705 206.754 50.4469 206.754C53.2305 206.754 55.4573 204.527 55.4573 201.744V157.114H63.8081V201.187C63.8081 208.703 57.8698 214.548 50.4469 214.548C42.9312 214.548 37.0857 208.703 37.0857 201.187V169.083C37.0857 166.392 34.8588 164.165 32.0753 164.165C29.2917 164.165 27.0648 166.392 27.0648 169.083V201.187C27.0648 208.703 21.1265 214.548 13.7036 214.548C6.28074 214.548 0.342468 208.703 0.342468 201.187V157.114Z" fill="#5E44E5"/>
<path d="M91.05 157.114L75.3274 213.62H66.9766L82.6992 157.114H91.05Z" fill="#5E44E5"/>
<path d="M96.6334 157.114H104.984V199.424C104.984 203.135 108.139 206.29 111.85 206.29H154.996V213.62H109.438C102.386 213.62 96.6334 207.867 96.6334 200.816V157.114Z" fill="#5E44E5"/>
<path d="M161.768 157.114H170.119V199.424C170.119 203.135 173.274 206.29 176.985 206.29H220.131V213.62H174.573C167.521 213.62 161.768 207.867 161.768 200.816V157.114Z" fill="#5E44E5"/>
</svg>
